{
    "asset" : {
        "generator" : "Khronos glTF Blender I/O v1.8.19",
        "version" : "2.0"
    },
    "scene" : 0,
    "scenes" : [
        {
            "name" : "Scene",
            "nodes" : [
                0
            ]
        }
    ],
    "nodes" : [
        {
            "mesh" : 0,
            "name" : "Curve.043"
        }
    ],
    "materials" : [
        {
            "doubleSided" : true,
            "name" : "SVGMat.109",
            "pbrMetallicRoughness" : {
                "baseColorFactor" : [
                    0.05448027700185776,
                    0.2345505803823471,
                    0.9046611785888672,
                    1
                ],
                "metallicFactor" : 0,
                "roughnessFactor" : 0.4000000059604645
            }
        },
        {
            "doubleSided" : true,
            "name" : "SVGMat.110",
            "pbrMetallicRoughness" : {
                "metallicFactor" : 0,
                "roughnessFactor" : 0.4000000059604645
            }
        }
    ],
    "meshes" : [
        {
            "name" : "Curve.086",
            "primitives" : [
                {
                    "attributes" : {
                        "POSITION" : 0,
                        "NORMAL" : 1,
                        "TEXCOORD_0" : 2
                    },
                    "indices" : 3,
                    "material" : 0
                },
                {
                    "attributes" : {
                        "POSITION" : 4,
                        "NORMAL" : 5,
                        "TEXCOORD_0" : 6
                    },
                    "indices" : 7,
                    "material" : 1
                }
            ]
        }
    ],
    "accessors" : [
        {
            "bufferView" : 0,
            "componentType" : 5126,
            "count" : 792,
            "max" : [
                0.334968626499176,
                0.029999999329447746,
                0.3053690493106842
            ],
            "min" : [
                -0.34537723660469055,
                -0.029999999329447746,
                -0.30589237809181213
            ],
            "type" : "VEC3"
        },
        {
            "bufferView" : 1,
            "componentType" : 5126,
            "count" : 792,
            "type" : "VEC3"
        },
        {
            "bufferView" : 2,
            "componentType" : 5126,
            "count" : 792,
            "type" : "VEC2"
        },
        {
            "bufferView" : 3,
            "componentType" : 5123,
            "count" : 1194,
            "type" : "SCALAR"
        },
        {
            "bufferView" : 4,
            "componentType" : 5126,
            "count" : 86,
            "max" : [
                0.17500180006027222,
                0.03999999910593033,
                0.1486244648694992
            ],
            "min" : [
                -0.12734907865524292,
                -0.03999999910593033,
                -0.14844243228435516
            ],
            "type" : "VEC3"
        },
        {
            "bufferView" : 5,
            "componentType" : 5126,
            "count" : 86,
            "type" : "VEC3"
        },
        {
            "bufferView" : 6,
            "componentType" : 5126,
            "count" : 86,
            "type" : "VEC2"
        },
        {
            "bufferView" : 7,
            "componentType" : 5123,
            "count" : 144,
            "type" : "SCALAR"
        }
    ],
    "bufferViews" : [
        {
            "buffer" : 0,
            "byteLength" : 9504,
            "byteOffset" : 0
        },
        {
            "buffer" : 0,
            "byteLength" : 9504,
            "byteOffset" : 9504
        },
        {
            "buffer" : 0,
            "byteLength" : 6336,
            "byteOffset" : 19008
        },
        {
            "buffer" : 0,
            "byteLength" : 2388,
            "byteOffset" : 25344
        },
        {
            "buffer" : 0,
            "byteLength" : 1032,
            "byteOffset" : 27732
        },
        {
            "buffer" : 0,
            "byteLength" : 1032,
            "byteOffset" : 28764
        },
        {
            "buffer" : 0,
            "byteLength" : 688,
            "byteOffset" : 29796
        },
        {
            "buffer" : 0,
            "byteLength" : 288,
            "byteOffset" : 30484
        }
    ],
    "buffers" : [
        {
            "byteLength" : 30772,
            "uri" : "data:application/octet-stream;base64,"
        }
    ]
}
