{
    "asset" : {
        "generator" : "Khronos glTF Blender I/O v1.8.19",
        "version" : "2.0"
    },
    "scene" : 0,
    "scenes" : [
        {
            "name" : "Scene",
            "nodes" : [
                0,
                1,
                2,
                3
            ]
        }
    ],
    "nodes" : [
        {
            "mesh" : 0,
            "name" : "Curve.041"
        },
        {
            "mesh" : 1,
            "name" : "Curve.036"
        },
        {
            "mesh" : 2,
            "name" : "Curve.039"
        },
        {
            "mesh" : 3,
            "name" : "Curve.040"
        }
    ],
    "materials" : [
        {
            "doubleSided" : true,
            "name" : "SVGMat.097",
            "pbrMetallicRoughness" : {
                "baseColorFactor" : [
                    0.8879231214523315,
                    0.40724021196365356,
                    0.03688944876194,
                    1
                ],
                "metallicFactor" : 0,
                "roughnessFactor" : 0.4000000059604645
            }
        },
        {
            "doubleSided" : true,
            "name" : "SVGMat.098",
            "pbrMetallicRoughness" : {
                "baseColorFactor" : [
                    0.8962693810462952,
                    0.4019777774810791,
                    0.03560131415724754,
                    1
                ],
                "metallicFactor" : 0,
                "roughnessFactor" : 0.4000000059604645
            }
        },
        {
            "doubleSided" : true,
            "name" : "SVGMat.099",
            "pbrMetallicRoughness" : {
                "baseColorFactor" : [
                    0.9130986332893372,
                    0.6038273572921753,
                    0.08865558356046677,
                    1
                ],
                "metallicFactor" : 0,
                "roughnessFactor" : 0.4000000059604645
            }
        },
        {
            "doubleSided" : true,
            "name" : "SVGMat.100",
            "pbrMetallicRoughness" : {
                "baseColorFactor" : [
                    0.8069522380828857,
                    0.2541520893573761,
                    0.026241222396492958,
                    1
                ],
                "metallicFactor" : 0,
                "roughnessFactor" : 0.4000000059604645
            }
        }
    ],
    "meshes" : [
        {
            "name" : "path-1_1_.003",
            "primitives" : [
                {
                    "attributes" : {
                        "POSITION" : 0,
                        "NORMAL" : 1,
                        "TEXCOORD_0" : 2
                    },
                    "indices" : 3,
                    "material" : 0
                }
            ]
        },
        {
            "name" : "path-3_1_.003",
            "primitives" : [
                {
                    "attributes" : {
                        "POSITION" : 4,
                        "NORMAL" : 5,
                        "TEXCOORD_0" : 6
                    },
                    "indices" : 7,
                    "material" : 1
                }
            ]
        },
        {
            "name" : "Curve.079",
            "primitives" : [
                {
                    "attributes" : {
                        "POSITION" : 8,
                        "NORMAL" : 9,
                        "TEXCOORD_0" : 10
                    },
                    "indices" : 11,
                    "material" : 2
                }
            ]
        },
        {
            "name" : "Curve.081",
            "primitives" : [
                {
                    "attributes" : {
                        "POSITION" : 12,
                        "NORMAL" : 13,
                        "TEXCOORD_0" : 14
                    },
                    "indices" : 15,
                    "material" : 3
                }
            ]
        }
    ],
    "accessors" : [
        {
            "bufferView" : 0,
            "componentType" : 5126,
            "count" : 182,
            "max" : [
                -0.042987555265426636,
                0.03500000014901161,
                0.14876854419708252
            ],
            "min" : [
                -0.2305845022201538,
                -0.03500000014901161,
                -0.3724767565727234
            ],
            "type" : "VEC3"
        },
        {
            "bufferView" : 1,
            "componentType" : 5126,
            "count" : 182,
            "type" : "VEC3"
        },
        {
            "bufferView" : 2,
            "componentType" : 5126,
            "count" : 182,
            "type" : "VEC2"
        },
        {
            "bufferView" : 3,
            "componentType" : 5123,
            "count" : 300,
            "type" : "SCALAR"
        },
        {
            "bufferView" : 4,
            "componentType" : 5126,
            "count" : 200,
            "max" : [
                0.07766491174697876,
                0.03500000014901161,
                -0.09883424639701843
            ],
            "min" : [
                -0.042987555265426636,
                -0.03500000014901161,
                -0.2812808156013489
            ],
            "type" : "VEC3"
        },
        {
            "bufferView" : 5,
            "componentType" : 5126,
            "count" : 200,
            "type" : "VEC3"
        },
        {
            "bufferView" : 6,
            "componentType" : 5126,
            "count" : 200,
            "type" : "VEC2"
        },
        {
            "bufferView" : 7,
            "componentType" : 5123,
            "count" : 312,
            "type" : "SCALAR"
        },
        {
            "bufferView" : 8,
            "componentType" : 5126,
            "count" : 348,
            "max" : [
                0.2384219467639923,
                0.03999999910593033,
                0.27282384037971497
            ],
            "min" : [
                -0.2305845022201538,
                -0.03999999910593033,
                -0.24054235219955444
            ],
            "type" : "VEC3"
        },
        {
            "bufferView" : 9,
            "componentType" : 5126,
            "count" : 348,
            "type" : "VEC3"
        },
        {
            "bufferView" : 10,
            "componentType" : 5126,
            "count" : 348,
            "type" : "VEC2"
        },
        {
            "bufferView" : 11,
            "componentType" : 5123,
            "count" : 588,
            "type" : "SCALAR"
        },
        {
            "bufferView" : 12,
            "componentType" : 5126,
            "count" : 14,
            "max" : [
                0.01729634404182434,
                0.03750000149011612,
                0.14876854419708252
            ],
            "min" : [
                -0.2305845022201538,
                -0.03750000149011612,
                -0.21347928047180176
            ],
            "type" : "VEC3"
        },
        {
            "bufferView" : 13,
            "componentType" : 5126,
            "count" : 14,
            "type" : "VEC3"
        },
        {
            "bufferView" : 14,
            "componentType" : 5126,
            "count" : 14,
            "type" : "VEC2"
        },
        {
            "bufferView" : 15,
            "componentType" : 5123,
            "count" : 24,
            "type" : "SCALAR"
        }
    ],
    "bufferViews" : [
        {
            "buffer" : 0,
            "byteLength" : 2184,
            "byteOffset" : 0
        },
        {
            "buffer" : 0,
            "byteLength" : 2184,
            "byteOffset" : 2184
        },
        {
            "buffer" : 0,
            "byteLength" : 1456,
            "byteOffset" : 4368
        },
        {
            "buffer" : 0,
            "byteLength" : 600,
            "byteOffset" : 5824
        },
        {
            "buffer" : 0,
            "byteLength" : 2400,
            "byteOffset" : 6424
        },
        {
            "buffer" : 0,
            "byteLength" : 2400,
            "byteOffset" : 8824
        },
        {
            "buffer" : 0,
            "byteLength" : 1600,
            "byteOffset" : 11224
        },
        {
            "buffer" : 0,
            "byteLength" : 624,
            "byteOffset" : 12824
        },
        {
            "buffer" : 0,
            "byteLength" : 4176,
            "byteOffset" : 13448
        },
        {
            "buffer" : 0,
            "byteLength" : 4176,
            "byteOffset" : 17624
        },
        {
            "buffer" : 0,
            "byteLength" : 2784,
            "byteOffset" : 21800
        },
        {
            "buffer" : 0,
            "byteLength" : 1176,
            "byteOffset" : 24584
        },
        {
            "buffer" : 0,
            "byteLength" : 168,
            "byteOffset" : 25760
        },
        {
            "buffer" : 0,
            "byteLength" : 168,
            "byteOffset" : 25928
        },
        {
            "buffer" : 0,
            "byteLength" : 112,
            "byteOffset" : 26096
        },
        {
            "buffer" : 0,
            "byteLength" : 48,
            "byteOffset" : 26208
        }
    ],
    "buffers" : [
        {
            "byteLength" : 26256,
            "uri" : "data:application/octet-stream;base64,"
        }
    ]
}
