{
    "asset" : {
        "generator" : "Khronos glTF Blender I/O v1.8.19",
        "version" : "2.0"
    },
    "scene" : 0,
    "scenes" : [
        {
            "name" : "Scene",
            "nodes" : [
                0
            ]
        }
    ],
    "nodes" : [
        {
            "mesh" : 0,
            "name" : "Curve.035",
            "translation" : [
                0.3502240478992462,
                0,
                -0.3363635540008545
            ]
        }
    ],
    "materials" : [
        {
            "doubleSided" : true,
            "name" : "SVGMat.068",
            "pbrMetallicRoughness" : {
                "baseColorFactor" : [
                    0.6514056324958801,
                    0.07227185368537903,
                    0.38642942905426025,
                    1
                ],
                "metallicFactor" : 0,
                "roughnessFactor" : 0.4000000059604645
            }
        }
    ],
    "meshes" : [
        {
            "name" : "Curve.061",
            "primitives" : [
                {
                    "attributes" : {
                        "POSITION" : 0,
                        "NORMAL" : 1,
                        "TEXCOORD_0" : 2
                    },
                    "indices" : 3,
                    "material" : 0
                }
            ]
        }
    ],
    "accessors" : [
        {
            "bufferView" : 0,
            "componentType" : 5126,
            "count" : 4441,
            "max" : [
                0.29179131984710693,
                0.03999999910593033,
                0.31514447927474976
            ],
            "min" : [
                -0.28698617219924927,
                -0.03999999910593033,
                -0.3349432349205017
            ],
            "type" : "VEC3"
        },
        {
            "bufferView" : 1,
            "componentType" : 5126,
            "count" : 4441,
            "type" : "VEC3"
        },
        {
            "bufferView" : 2,
            "componentType" : 5126,
            "count" : 4441,
            "type" : "VEC2"
        },
        {
            "bufferView" : 3,
            "componentType" : 5123,
            "count" : 8016,
            "type" : "SCALAR"
        }
    ],
    "bufferViews" : [
        {
            "buffer" : 0,
            "byteLength" : 53292,
            "byteOffset" : 0
        },
        {
            "buffer" : 0,
            "byteLength" : 53292,
            "byteOffset" : 53292
        },
        {
            "buffer" : 0,
            "byteLength" : 35528,
            "byteOffset" : 106584
        },
        {
            "buffer" : 0,
            "byteLength" : 16032,
            "byteOffset" : 142112
        }
    ],
    "buffers" : [
        {
            "byteLength" : 158144,
            "uri" : "data:application/octet-stream;base64,"
        }
    ]
}
