{
    "asset" : {
        "generator" : "Khronos glTF Blender I/O v1.8.19",
        "version" : "2.0"
    },
    "scene" : 0,
    "scenes" : [
        {
            "name" : "Scene",
            "nodes" : [
                0
            ]
        }
    ],
    "nodes" : [
        {
            "mesh" : 0,
            "name" : "Curve.023",
            "translation" : [
                0.0002465248107910156,
                0,
                0.016926556825637817
            ]
        }
    ],
    "materials" : [
        {
            "doubleSided" : true,
            "name" : "SVGMat.013",
            "pbrMetallicRoughness" : {
                "baseColorFactor" : [
                    0.027320891618728638,
                    0.0015176349552348256,
                    0.0006070539820939302,
                    1
                ],
                "metallicFactor" : 0,
                "roughnessFactor" : 0.4000000059604645
            }
        },
        {
            "doubleSided" : true,
            "name" : "SVGMat.014",
            "pbrMetallicRoughness" : {
                "baseColorFactor" : [
                    1,
                    0.21223075687885284,
                    0.009134058840572834,
                    1
                ],
                "metallicFactor" : 0,
                "roughnessFactor" : 0.4000000059604645
            }
        }
    ],
    "meshes" : [
        {
            "name" : "Curve.015",
            "primitives" : [
                {
                    "attributes" : {
                        "POSITION" : 0,
                        "NORMAL" : 1,
                        "TEXCOORD_0" : 2
                    },
                    "indices" : 3,
                    "material" : 0
                },
                {
                    "attributes" : {
                        "POSITION" : 4,
                        "NORMAL" : 5,
                        "TEXCOORD_0" : 6
                    },
                    "indices" : 7,
                    "material" : 1
                }
            ]
        }
    ],
    "accessors" : [
        {
            "bufferView" : 0,
            "componentType" : 5126,
            "count" : 492,
            "max" : [
                0.3313067555427551,
                0.0300561785697937,
                0.3600020408630371
            ],
            "min" : [
                -0.3742632269859314,
                -0.02994382008910179,
                -0.32778340578079224
            ],
            "type" : "VEC3"
        },
        {
            "bufferView" : 1,
            "componentType" : 5126,
            "count" : 492,
            "type" : "VEC3"
        },
        {
            "bufferView" : 2,
            "componentType" : 5126,
            "count" : 492,
            "type" : "VEC2"
        },
        {
            "bufferView" : 3,
            "componentType" : 5123,
            "count" : 1008,
            "type" : "SCALAR"
        },
        {
            "bufferView" : 4,
            "componentType" : 5126,
            "count" : 2288,
            "max" : [
                0.14461296796798706,
                0.04005618020892143,
                0.15280577540397644
            ],
            "min" : [
                -0.20335257053375244,
                -0.039943818002939224,
                -0.1793346405029297
            ],
            "type" : "VEC3"
        },
        {
            "bufferView" : 5,
            "componentType" : 5126,
            "count" : 2288,
            "type" : "VEC3"
        },
        {
            "bufferView" : 6,
            "componentType" : 5126,
            "count" : 2288,
            "type" : "VEC2"
        },
        {
            "bufferView" : 7,
            "componentType" : 5123,
            "count" : 4320,
            "type" : "SCALAR"
        }
    ],
    "bufferViews" : [
        {
            "buffer" : 0,
            "byteLength" : 5904,
            "byteOffset" : 0
        },
        {
            "buffer" : 0,
            "byteLength" : 5904,
            "byteOffset" : 5904
        },
        {
            "buffer" : 0,
            "byteLength" : 3936,
            "byteOffset" : 11808
        },
        {
            "buffer" : 0,
            "byteLength" : 2016,
            "byteOffset" : 15744
        },
        {
            "buffer" : 0,
            "byteLength" : 27456,
            "byteOffset" : 17760
        },
        {
            "buffer" : 0,
            "byteLength" : 27456,
            "byteOffset" : 45216
        },
        {
            "buffer" : 0,
            "byteLength" : 18304,
            "byteOffset" : 72672
        },
        {
            "buffer" : 0,
            "byteLength" : 8640,
            "byteOffset" : 90976
        }
    ],
    "buffers" : [
        {
            "byteLength" : 99616,
            "uri" : "data:application/octet-stream;base64,"
        }
    ]
}
