{
    "asset" : {
        "generator" : "Khronos glTF Blender I/O v1.8.19",
        "version" : "2.0"
    },
    "scene" : 0,
    "scenes" : [
        {
            "name" : "Scene",
            "nodes" : [
                0,
                1
            ]
        }
    ],
    "nodes" : [
        {
            "mesh" : 0,
            "name" : "Curve",
            "scale" : [
                2.584052324295044,
                1,
                2.584052324295044
            ]
        },
        {
            "mesh" : 1,
            "name" : "Curve.001",
            "scale" : [
                2.584052324295044,
                1,
                2.584052324295044
            ]
        }
    ],
    "materials" : [
        {
            "doubleSided" : true,
            "name" : "SVGMat.003",
            "pbrMetallicRoughness" : {
                "baseColorFactor" : [
                    0.31854677200317383,
                    0.05448027700185776,
                    0.10461648553609848,
                    1
                ],
                "metallicFactor" : 0,
                "roughnessFactor" : 0.4000000059604645
            }
        },
        {
            "doubleSided" : true,
            "name" : "SVGMat.005",
            "pbrMetallicRoughness" : {
                "baseColorFactor" : [
                    1,
                    1,
                    1,
                    1
                ],
                "metallicFactor" : 0,
                "roughnessFactor" : 0.4000000059604645
            }
        }
    ],
    "meshes" : [
        {
            "name" : "Curve.004",
            "primitives" : [
                {
                    "attributes" : {
                        "POSITION" : 0,
                        "NORMAL" : 1,
                        "TEXCOORD_0" : 2
                    },
                    "indices" : 3,
                    "material" : 0
                }
            ]
        },
        {
            "name" : "Curve.005",
            "primitives" : [
                {
                    "attributes" : {
                        "POSITION" : 4,
                        "NORMAL" : 5,
                        "TEXCOORD_0" : 6
                    },
                    "indices" : 7,
                    "material" : 1
                }
            ]
        }
    ],
    "accessors" : [
        {
            "bufferView" : 0,
            "componentType" : 5126,
            "count" : 1648,
            "max" : [
                0.11150829493999481,
                0.019999999552965164,
                0.10980161279439926
            ],
            "min" : [
                -0.10097399353981018,
                -0.019999999552965164,
                -0.12846669554710388
            ],
            "type" : "VEC3"
        },
        {
            "bufferView" : 1,
            "componentType" : 5126,
            "count" : 1648,
            "type" : "VEC3"
        },
        {
            "bufferView" : 2,
            "componentType" : 5126,
            "count" : 1648,
            "type" : "VEC2"
        },
        {
            "bufferView" : 3,
            "componentType" : 5123,
            "count" : 3036,
            "type" : "SCALAR"
        },
        {
            "bufferView" : 4,
            "componentType" : 5126,
            "count" : 6354,
            "max" : [
                0.11036336421966553,
                0.029999999329447746,
                0.11312249302864075
            ],
            "min" : [
                -0.1157381683588028,
                -0.029999999329447746,
                -0.1365574300289154
            ],
            "type" : "VEC3"
        },
        {
            "bufferView" : 5,
            "componentType" : 5126,
            "count" : 6354,
            "type" : "VEC3"
        },
        {
            "bufferView" : 6,
            "componentType" : 5126,
            "count" : 6354,
            "type" : "VEC2"
        },
        {
            "bufferView" : 7,
            "componentType" : 5123,
            "count" : 11520,
            "type" : "SCALAR"
        }
    ],
    "bufferViews" : [
        {
            "buffer" : 0,
            "byteLength" : 19776,
            "byteOffset" : 0
        },
        {
            "buffer" : 0,
            "byteLength" : 19776,
            "byteOffset" : 19776
        },
        {
            "buffer" : 0,
            "byteLength" : 13184,
            "byteOffset" : 39552
        },
        {
            "buffer" : 0,
            "byteLength" : 6072,
            "byteOffset" : 52736
        },
        {
            "buffer" : 0,
            "byteLength" : 76248,
            "byteOffset" : 58808
        },
        {
            "buffer" : 0,
            "byteLength" : 76248,
            "byteOffset" : 135056
        },
        {
            "buffer" : 0,
            "byteLength" : 50832,
            "byteOffset" : 211304
        },
        {
            "buffer" : 0,
            "byteLength" : 23040,
            "byteOffset" : 262136
        }
    ],
    "buffers" : [
        {
            "byteLength" : 285176,
            "uri" : "data:application/octet-stream;base64,"
        }
    ]
}
