{
    "asset" : {
        "generator" : "Khronos glTF Blender I/O v1.8.19",
        "version" : "2.0"
    },
    "scene" : 0,
    "scenes" : [
        {
            "name" : "Scene",
            "nodes" : [
                0
            ]
        }
    ],
    "nodes" : [
        {
            "mesh" : 0,
            "name" : "Curve.020"
        }
    ],
    "materials" : [
        {
            "doubleSided" : true,
            "name" : "SVGMat.077",
            "pbrMetallicRoughness" : {
                "baseColorFactor" : [
                    1,
                    0.026241222396492958,
                    0.014443843625485897,
                    1
                ],
                "metallicFactor" : 0,
                "roughnessFactor" : 0.4000000059604645
            }
        }
    ],
    "meshes" : [
        {
            "name" : "Curve.055",
            "primitives" : [
                {
                    "attributes" : {
                        "POSITION" : 0,
                        "NORMAL" : 1,
                        "TEXCOORD_0" : 2
                    },
                    "indices" : 3,
                    "material" : 0
                }
            ]
        }
    ],
    "accessors" : [
        {
            "bufferView" : 0,
            "componentType" : 5126,
            "count" : 4832,
            "max" : [
                0.35373541712760925,
                0.029999999329447746,
                0.42674607038497925
            ],
            "min" : [
                -0.3274782598018646,
                -0.029999999329447746,
                -0.2743717432022095
            ],
            "type" : "VEC3"
        },
        {
            "bufferView" : 1,
            "componentType" : 5126,
            "count" : 4832,
            "type" : "VEC3"
        },
        {
            "bufferView" : 2,
            "componentType" : 5126,
            "count" : 4832,
            "type" : "VEC2"
        },
        {
            "bufferView" : 3,
            "componentType" : 5123,
            "count" : 8844,
            "type" : "SCALAR"
        }
    ],
    "bufferViews" : [
        {
            "buffer" : 0,
            "byteLength" : 57984,
            "byteOffset" : 0
        },
        {
            "buffer" : 0,
            "byteLength" : 57984,
            "byteOffset" : 57984
        },
        {
            "buffer" : 0,
            "byteLength" : 38656,
            "byteOffset" : 115968
        },
        {
            "buffer" : 0,
            "byteLength" : 17688,
            "byteOffset" : 154624
        }
    ],
    "buffers" : [
        {
            "byteLength" : 172312,
            "uri" : "data:application/octet-stream;base64,"
        }
    ]
}
