{
    "asset" : {
        "generator" : "Khronos glTF Blender I/O v1.8.19",
        "version" : "2.0"
    },
    "scene" : 0,
    "scenes" : [
        {
            "name" : "Scene",
            "nodes" : [
                0
            ]
        }
    ],
    "nodes" : [
        {
            "mesh" : 0,
            "name" : "Curve",
            "scale" : [
                3.2009193897247314,
                1,
                3.2009193897247314
            ]
        }
    ],
    "materials" : [
        {
            "doubleSided" : true,
            "name" : "SVGMat.007",
            "pbrMetallicRoughness" : {
                "baseColorFactor" : [
                    0,
                    0,
                    0,
                    1
                ],
                "metallicFactor" : 0,
                "roughnessFactor" : 0.4000000059604645
            }
        },
        {
            "doubleSided" : true,
            "name" : "Material.002",
            "pbrMetallicRoughness" : {
                "baseColorFactor" : [
                    0.9999988079071045,
                    0.9999989867210388,
                    1,
                    1
                ],
                "metallicFactor" : 0,
                "roughnessFactor" : 0.4000000059604645
            }
        }
    ],
    "meshes" : [
        {
            "name" : "Curve",
            "primitives" : [
                {
                    "attributes" : {
                        "POSITION" : 0,
                        "NORMAL" : 1,
                        "TEXCOORD_0" : 2
                    },
                    "indices" : 3,
                    "material" : 0
                },
                {
                    "attributes" : {
                        "POSITION" : 4,
                        "NORMAL" : 5,
                        "TEXCOORD_0" : 6
                    },
                    "indices" : 7,
                    "material" : 1
                }
            ]
        }
    ],
    "accessors" : [
        {
            "bufferView" : 0,
            "componentType" : 5126,
            "count" : 3690,
            "max" : [
                0.1127496212720871,
                0.029999999329447746,
                0.11291182041168213
            ],
            "min" : [
                -0.11303277313709259,
                -0.029999999329447746,
                -0.11282280087471008
            ],
            "type" : "VEC3"
        },
        {
            "bufferView" : 1,
            "componentType" : 5126,
            "count" : 3690,
            "type" : "VEC3"
        },
        {
            "bufferView" : 2,
            "componentType" : 5126,
            "count" : 3690,
            "type" : "VEC2"
        },
        {
            "bufferView" : 3,
            "componentType" : 5123,
            "count" : 5868,
            "type" : "SCALAR"
        },
        {
            "bufferView" : 4,
            "componentType" : 5126,
            "count" : 319,
            "max" : [
                0.11222285032272339,
                0.01044238731265068,
                0.11222285032272339
            ],
            "min" : [
                -0.11222286522388458,
                -0.01044238731265068,
                -0.11222285032272339
            ],
            "type" : "VEC3"
        },
        {
            "bufferView" : 5,
            "componentType" : 5126,
            "count" : 319,
            "type" : "VEC3"
        },
        {
            "bufferView" : 6,
            "componentType" : 5126,
            "count" : 319,
            "type" : "VEC2"
        },
        {
            "bufferView" : 7,
            "componentType" : 5123,
            "count" : 372,
            "type" : "SCALAR"
        }
    ],
    "bufferViews" : [
        {
            "buffer" : 0,
            "byteLength" : 44280,
            "byteOffset" : 0
        },
        {
            "buffer" : 0,
            "byteLength" : 44280,
            "byteOffset" : 44280
        },
        {
            "buffer" : 0,
            "byteLength" : 29520,
            "byteOffset" : 88560
        },
        {
            "buffer" : 0,
            "byteLength" : 11736,
            "byteOffset" : 118080
        },
        {
            "buffer" : 0,
            "byteLength" : 3828,
            "byteOffset" : 129816
        },
        {
            "buffer" : 0,
            "byteLength" : 3828,
            "byteOffset" : 133644
        },
        {
            "buffer" : 0,
            "byteLength" : 2552,
            "byteOffset" : 137472
        },
        {
            "buffer" : 0,
            "byteLength" : 744,
            "byteOffset" : 140024
        }
    ],
    "buffers" : [
        {
            "byteLength" : 140768,
            "uri" : "data:application/octet-stream;base64,"
        }
    ]
}
