{
    "asset" : {
        "generator" : "Khronos glTF Blender I/O v1.8.19",
        "version" : "2.0"
    },
    "scene" : 0,
    "scenes" : [
        {
            "name" : "Scene",
            "nodes" : [
                0
            ]
        }
    ],
    "nodes" : [
        {
            "mesh" : 0,
            "name" : "Curve.006"
        }
    ],
    "materials" : [
        {
            "doubleSided" : true,
            "name" : "SVGMat.042",
            "pbrMetallicRoughness" : {
                "baseColorFactor" : [
                    0.2622506618499756,
                    0.577580451965332,
                    0.07036009430885315,
                    1
                ],
                "metallicFactor" : 0,
                "roughnessFactor" : 0.4000000059604645
            }
        },
        {
            "doubleSided" : true,
            "name" : "SVGMat.041",
            "pbrMetallicRoughness" : {
                "baseColorFactor" : [
                    0.2622506618499756,
                    0.577580451965332,
                    0.07036009430885315,
                    1
                ],
                "metallicFactor" : 0,
                "roughnessFactor" : 0.4000000059604645
            }
        }
    ],
    "meshes" : [
        {
            "name" : "Curve.027",
            "primitives" : [
                {
                    "attributes" : {
                        "POSITION" : 0,
                        "NORMAL" : 1,
                        "TEXCOORD_0" : 2
                    },
                    "indices" : 3,
                    "material" : 0
                },
                {
                    "attributes" : {
                        "POSITION" : 4,
                        "NORMAL" : 5,
                        "TEXCOORD_0" : 6
                    },
                    "indices" : 7,
                    "material" : 1
                }
            ]
        }
    ],
    "accessors" : [
        {
            "bufferView" : 0,
            "componentType" : 5126,
            "count" : 2222,
            "max" : [
                0.21022900938987732,
                0.03999999910593033,
                0.10973387956619263
            ],
            "min" : [
                -0.060581713914871216,
                -0.03999999910593033,
                -0.1753452718257904
            ],
            "type" : "VEC3"
        },
        {
            "bufferView" : 1,
            "componentType" : 5126,
            "count" : 2222,
            "type" : "VEC3"
        },
        {
            "bufferView" : 2,
            "componentType" : 5126,
            "count" : 2222,
            "type" : "VEC2"
        },
        {
            "bufferView" : 3,
            "componentType" : 5123,
            "count" : 4164,
            "type" : "SCALAR"
        },
        {
            "bufferView" : 4,
            "componentType" : 5126,
            "count" : 3155,
            "max" : [
                0.3162693679332733,
                0.03999999910593033,
                0.314292311668396
            ],
            "min" : [
                -0.3211989998817444,
                -0.03999999910593033,
                -0.3880212604999542
            ],
            "type" : "VEC3"
        },
        {
            "bufferView" : 5,
            "componentType" : 5126,
            "count" : 3155,
            "type" : "VEC3"
        },
        {
            "bufferView" : 6,
            "componentType" : 5126,
            "count" : 3155,
            "type" : "VEC2"
        },
        {
            "bufferView" : 7,
            "componentType" : 5123,
            "count" : 5604,
            "type" : "SCALAR"
        }
    ],
    "bufferViews" : [
        {
            "buffer" : 0,
            "byteLength" : 26664,
            "byteOffset" : 0
        },
        {
            "buffer" : 0,
            "byteLength" : 26664,
            "byteOffset" : 26664
        },
        {
            "buffer" : 0,
            "byteLength" : 17776,
            "byteOffset" : 53328
        },
        {
            "buffer" : 0,
            "byteLength" : 8328,
            "byteOffset" : 71104
        },
        {
            "buffer" : 0,
            "byteLength" : 37860,
            "byteOffset" : 79432
        },
        {
            "buffer" : 0,
            "byteLength" : 37860,
            "byteOffset" : 117292
        },
        {
            "buffer" : 0,
            "byteLength" : 25240,
            "byteOffset" : 155152
        },
        {
            "buffer" : 0,
            "byteLength" : 11208,
            "byteOffset" : 180392
        }
    ],
    "buffers" : [
        {
            "byteLength" : 191600,
            "uri" : "data:application/octet-stream;base64,"
        }
    ]
}
