{
    "asset" : {
        "generator" : "Khronos glTF Blender I/O v1.8.19",
        "version" : "2.0"
    },
    "scene" : 0,
    "scenes" : [
        {
            "name" : "Scene",
            "nodes" : [
                0,
                1,
                2
            ]
        }
    ],
    "nodes" : [
        {
            "mesh" : 0,
            "name" : "Curve",
            "scale" : [
                5.0757317543029785,
                1,
                5.0757317543029785
            ]
        },
        {
            "mesh" : 1,
            "name" : "Curve.001",
            "scale" : [
                5.0757317543029785,
                1,
                5.0757317543029785
            ]
        },
        {
            "mesh" : 2,
            "name" : "Curve.002",
            "scale" : [
                5.0757317543029785,
                1,
                5.2111124992370605
            ],
            "translation" : [
                0,
                0,
                0.003605446545407176
            ]
        }
    ],
    "materials" : [
        {
            "doubleSided" : true,
            "name" : "SVGMat.009",
            "pbrMetallicRoughness" : {
                "baseColorFactor" : [
                    0,
                    0.5583403706550598,
                    0.27049779891967773,
                    1
                ],
                "metallicFactor" : 0,
                "roughnessFactor" : 0.4000000059604645
            }
        },
        {
            "doubleSided" : true,
            "name" : "SVGMat.010",
            "pbrMetallicRoughness" : {
                "baseColorFactor" : [
                    0.005181516520678997,
                    0.24228112399578094,
                    0.177888423204422,
                    1
                ],
                "metallicFactor" : 0,
                "roughnessFactor" : 0.4000000059604645
            }
        },
        {
            "doubleSided" : true,
            "name" : "SVGMat.011",
            "pbrMetallicRoughness" : {
                "baseColorFactor" : [
                    0.028426039963960648,
                    0.0666259378194809,
                    0.1119324266910553,
                    1
                ],
                "metallicFactor" : 0,
                "roughnessFactor" : 0.4000000059604645
            }
        }
    ],
    "meshes" : [
        {
            "name" : "Curve.005",
            "primitives" : [
                {
                    "attributes" : {
                        "POSITION" : 0,
                        "NORMAL" : 1,
                        "TEXCOORD_0" : 2
                    },
                    "indices" : 3,
                    "material" : 0
                }
            ]
        },
        {
            "name" : "Curve.006",
            "primitives" : [
                {
                    "attributes" : {
                        "POSITION" : 4,
                        "NORMAL" : 5,
                        "TEXCOORD_0" : 6
                    },
                    "indices" : 7,
                    "material" : 1
                }
            ]
        },
        {
            "name" : "Curve.007",
            "primitives" : [
                {
                    "attributes" : {
                        "POSITION" : 8,
                        "NORMAL" : 9,
                        "TEXCOORD_0" : 10
                    },
                    "indices" : 11,
                    "material" : 2
                }
            ]
        }
    ],
    "accessors" : [
        {
            "bufferView" : 0,
            "componentType" : 5126,
            "count" : 1136,
            "max" : [
                0.028066791594028473,
                0.019999999552965164,
                0.052481845021247864
            ],
            "min" : [
                -0.09246763586997986,
                -0.019999999552965164,
                -0.09486737102270126
            ],
            "type" : "VEC3"
        },
        {
            "bufferView" : 1,
            "componentType" : 5126,
            "count" : 1136,
            "type" : "VEC3"
        },
        {
            "bufferView" : 2,
            "componentType" : 5126,
            "count" : 1136,
            "type" : "VEC2"
        },
        {
            "bufferView" : 3,
            "componentType" : 5123,
            "count" : 2172,
            "type" : "SCALAR"
        },
        {
            "bufferView" : 4,
            "componentType" : 5126,
            "count" : 1212,
            "max" : [
                0.10379423946142197,
                0.019999999552965164,
                0.05245627462863922
            ],
            "min" : [
                0.018774427473545074,
                -0.019999999552965164,
                -0.07119344919919968
            ],
            "type" : "VEC3"
        },
        {
            "bufferView" : 5,
            "componentType" : 5126,
            "count" : 1212,
            "type" : "VEC3"
        },
        {
            "bufferView" : 6,
            "componentType" : 5126,
            "count" : 1212,
            "type" : "VEC2"
        },
        {
            "bufferView" : 7,
            "componentType" : 5123,
            "count" : 2208,
            "type" : "SCALAR"
        },
        {
            "bufferView" : 8,
            "componentType" : 5126,
            "count" : 916,
            "max" : [
                0.0720263123512268,
                0.029999999329447746,
                0.05244776979088783
            ],
            "min" : [
                -0.03416215255856514,
                -0.029999999329447746,
                -0.05276080220937729
            ],
            "type" : "VEC3"
        },
        {
            "bufferView" : 9,
            "componentType" : 5126,
            "count" : 916,
            "type" : "VEC3"
        },
        {
            "bufferView" : 10,
            "componentType" : 5126,
            "count" : 916,
            "type" : "VEC2"
        },
        {
            "bufferView" : 11,
            "componentType" : 5123,
            "count" : 1692,
            "type" : "SCALAR"
        }
    ],
    "bufferViews" : [
        {
            "buffer" : 0,
            "byteLength" : 13632,
            "byteOffset" : 0
        },
        {
            "buffer" : 0,
            "byteLength" : 13632,
            "byteOffset" : 13632
        },
        {
            "buffer" : 0,
            "byteLength" : 9088,
            "byteOffset" : 27264
        },
        {
            "buffer" : 0,
            "byteLength" : 4344,
            "byteOffset" : 36352
        },
        {
            "buffer" : 0,
            "byteLength" : 14544,
            "byteOffset" : 40696
        },
        {
            "buffer" : 0,
            "byteLength" : 14544,
            "byteOffset" : 55240
        },
        {
            "buffer" : 0,
            "byteLength" : 9696,
            "byteOffset" : 69784
        },
        {
            "buffer" : 0,
            "byteLength" : 4416,
            "byteOffset" : 79480
        },
        {
            "buffer" : 0,
            "byteLength" : 10992,
            "byteOffset" : 83896
        },
        {
            "buffer" : 0,
            "byteLength" : 10992,
            "byteOffset" : 94888
        },
        {
            "buffer" : 0,
            "byteLength" : 7328,
            "byteOffset" : 105880
        },
        {
            "buffer" : 0,
            "byteLength" : 3384,
            "byteOffset" : 113208
        }
    ],
    "buffers" : [
        {
            "byteLength" : 116592,
            "uri" : "data:application/octet-stream;base64,"
        }
    ]
}
