{
    "asset" : {
        "generator" : "Khronos glTF Blender I/O v1.8.19",
        "version" : "2.0"
    },
    "scene" : 0,
    "scenes" : [
        {
            "name" : "Scene",
            "nodes" : [
                0
            ]
        }
    ],
    "nodes" : [
        {
            "mesh" : 0,
            "name" : "Curve"
        }
    ],
    "materials" : [
        {
            "doubleSided" : true,
            "name" : "SVGMat.004",
            "pbrMetallicRoughness" : {
                "baseColorFactor" : [
                    0,
                    0.012983032502233982,
                    0.03688944876194,
                    1
                ],
                "metallicFactor" : 0,
                "roughnessFactor" : 0.4000000059604645
            }
        },
        {
            "doubleSided" : true,
            "name" : "SVGMat.007",
            "pbrMetallicRoughness" : {
                "baseColorFactor" : [
                    0.03071344457566738,
                    0.3915724754333496,
                    1,
                    1
                ],
                "metallicFactor" : 0,
                "roughnessFactor" : 0.4000000059604645
            }
        }
    ],
    "meshes" : [
        {
            "name" : "Curve.010",
            "primitives" : [
                {
                    "attributes" : {
                        "POSITION" : 0,
                        "NORMAL" : 1,
                        "TEXCOORD_0" : 2
                    },
                    "indices" : 3,
                    "material" : 0
                },
                {
                    "attributes" : {
                        "POSITION" : 4,
                        "NORMAL" : 5,
                        "TEXCOORD_0" : 6
                    },
                    "indices" : 7,
                    "material" : 1
                }
            ]
        }
    ],
    "accessors" : [
        {
            "bufferView" : 0,
            "componentType" : 5126,
            "count" : 475,
            "max" : [
                0.34185799956321716,
                0.030040664598345757,
                0.3454434275627136
            ],
            "min" : [
                -0.36371198296546936,
                -0.029959334060549736,
                -0.3423420190811157
            ],
            "type" : "VEC3"
        },
        {
            "bufferView" : 1,
            "componentType" : 5126,
            "count" : 475,
            "type" : "VEC3"
        },
        {
            "bufferView" : 2,
            "componentType" : 5126,
            "count" : 475,
            "type" : "VEC2"
        },
        {
            "bufferView" : 3,
            "componentType" : 5123,
            "count" : 1008,
            "type" : "SCALAR"
        },
        {
            "bufferView" : 4,
            "componentType" : 5126,
            "count" : 5241,
            "max" : [
                0.219577819108963,
                0.04004066437482834,
                0.14998304843902588
            ],
            "min" : [
                -0.2049587368965149,
                -0.03995933383703232,
                -0.16745638847351074
            ],
            "type" : "VEC3"
        },
        {
            "bufferView" : 5,
            "componentType" : 5126,
            "count" : 5241,
            "type" : "VEC3"
        },
        {
            "bufferView" : 6,
            "componentType" : 5126,
            "count" : 5241,
            "type" : "VEC2"
        },
        {
            "bufferView" : 7,
            "componentType" : 5123,
            "count" : 9660,
            "type" : "SCALAR"
        }
    ],
    "bufferViews" : [
        {
            "buffer" : 0,
            "byteLength" : 5700,
            "byteOffset" : 0
        },
        {
            "buffer" : 0,
            "byteLength" : 5700,
            "byteOffset" : 5700
        },
        {
            "buffer" : 0,
            "byteLength" : 3800,
            "byteOffset" : 11400
        },
        {
            "buffer" : 0,
            "byteLength" : 2016,
            "byteOffset" : 15200
        },
        {
            "buffer" : 0,
            "byteLength" : 62892,
            "byteOffset" : 17216
        },
        {
            "buffer" : 0,
            "byteLength" : 62892,
            "byteOffset" : 80108
        },
        {
            "buffer" : 0,
            "byteLength" : 41928,
            "byteOffset" : 143000
        },
        {
            "buffer" : 0,
            "byteLength" : 19320,
            "byteOffset" : 184928
        }
    ],
    "buffers" : [
        {
            "byteLength" : 204248,
            "uri" : "data:application/octet-stream;base64,"
        }
    ]
}
