{
    "asset" : {
        "generator" : "Khronos glTF Blender I/O v1.8.19",
        "version" : "2.0"
    },
    "scene" : 0,
    "scenes" : [
        {
            "name" : "Scene",
            "nodes" : [
                0
            ]
        }
    ],
    "nodes" : [
        {
            "mesh" : 0,
            "name" : "Curve.037"
        }
    ],
    "materials" : [
        {
            "doubleSided" : true,
            "name" : "SVGMat.073",
            "pbrMetallicRoughness" : {
                "baseColorFactor" : [
                    0.05951123684644699,
                    0.16826939582824707,
                    0.3613067865371704,
                    1
                ],
                "metallicFactor" : 0,
                "roughnessFactor" : 0.4000000059604645
            }
        },
        {
            "doubleSided" : true,
            "name" : "SVGMat.074",
            "pbrMetallicRoughness" : {
                "baseColorFactor" : [
                    0.9301108717918396,
                    0.6444796919822693,
                    0.09530746936798096,
                    1
                ],
                "metallicFactor" : 0,
                "roughnessFactor" : 0.4000000059604645
            }
        }
    ],
    "meshes" : [
        {
            "name" : "Curve.064",
            "primitives" : [
                {
                    "attributes" : {
                        "POSITION" : 0,
                        "NORMAL" : 1,
                        "TEXCOORD_0" : 2
                    },
                    "indices" : 3,
                    "material" : 0
                },
                {
                    "attributes" : {
                        "POSITION" : 4,
                        "NORMAL" : 5,
                        "TEXCOORD_0" : 6
                    },
                    "indices" : 7,
                    "material" : 1
                }
            ]
        }
    ],
    "accessors" : [
        {
            "bufferView" : 0,
            "componentType" : 5126,
            "count" : 1174,
            "max" : [
                0.1431039571762085,
                0.04003571346402168,
                0.1407633274793625
            ],
            "min" : [
                -0.28433868288993835,
                -0.039964284747838974,
                -0.2875854969024658
            ],
            "type" : "VEC3"
        },
        {
            "bufferView" : 1,
            "componentType" : 5126,
            "count" : 1174,
            "type" : "VEC3"
        },
        {
            "bufferView" : 2,
            "componentType" : 5126,
            "count" : 1174,
            "type" : "VEC2"
        },
        {
            "bufferView" : 3,
            "componentType" : 5123,
            "count" : 2064,
            "type" : "SCALAR"
        },
        {
            "bufferView" : 4,
            "componentType" : 5126,
            "count" : 1169,
            "max" : [
                0.2921402156352997,
                0.04003571346402168,
                0.2857806086540222
            ],
            "min" : [
                -0.13530245423316956,
                -0.039964284747838974,
                -0.14259645342826843
            ],
            "type" : "VEC3"
        },
        {
            "bufferView" : 5,
            "componentType" : 5126,
            "count" : 1169,
            "type" : "VEC3"
        },
        {
            "bufferView" : 6,
            "componentType" : 5126,
            "count" : 1169,
            "type" : "VEC2"
        },
        {
            "bufferView" : 7,
            "componentType" : 5123,
            "count" : 2064,
            "type" : "SCALAR"
        }
    ],
    "bufferViews" : [
        {
            "buffer" : 0,
            "byteLength" : 14088,
            "byteOffset" : 0
        },
        {
            "buffer" : 0,
            "byteLength" : 14088,
            "byteOffset" : 14088
        },
        {
            "buffer" : 0,
            "byteLength" : 9392,
            "byteOffset" : 28176
        },
        {
            "buffer" : 0,
            "byteLength" : 4128,
            "byteOffset" : 37568
        },
        {
            "buffer" : 0,
            "byteLength" : 14028,
            "byteOffset" : 41696
        },
        {
            "buffer" : 0,
            "byteLength" : 14028,
            "byteOffset" : 55724
        },
        {
            "buffer" : 0,
            "byteLength" : 9352,
            "byteOffset" : 69752
        },
        {
            "buffer" : 0,
            "byteLength" : 4128,
            "byteOffset" : 79104
        }
    ],
    "buffers" : [
        {
            "byteLength" : 83232,
            "uri" : "data:application/octet-stream;base64,"
        }
    ]
}
