{
    "asset" : {
        "generator" : "Khronos glTF Blender I/O v1.8.19",
        "version" : "2.0"
    },
    "scene" : 0,
    "scenes" : [
        {
            "name" : "Scene",
            "nodes" : [
                0
            ]
        }
    ],
    "nodes" : [
        {
            "mesh" : 0,
            "name" : "Curve",
            "scale" : [
                3.487534284591675,
                1,
                3.487534284591675
            ]
        }
    ],
    "materials" : [
        {
            "doubleSided" : true,
            "name" : "SVGMat.004",
            "pbrMetallicRoughness" : {
                "baseColorFactor" : [
                    0.08650045841932297,
                    0.533276379108429,
                    0.7304607629776001,
                    1
                ],
                "metallicFactor" : 0,
                "roughnessFactor" : 0.4000000059604645
            }
        }
    ],
    "meshes" : [
        {
            "name" : "Curve.003",
            "primitives" : [
                {
                    "attributes" : {
                        "POSITION" : 0,
                        "NORMAL" : 1,
                        "TEXCOORD_0" : 2
                    },
                    "indices" : 3,
                    "material" : 0
                }
            ]
        }
    ],
    "accessors" : [
        {
            "bufferView" : 0,
            "componentType" : 5126,
            "count" : 5290,
            "max" : [
                0.10575592517852783,
                0.029999999329447746,
                0.09158013761043549
            ],
            "min" : [
                -0.10591506958007812,
                -0.029999999329447746,
                -0.09170553088188171
            ],
            "type" : "VEC3"
        },
        {
            "bufferView" : 1,
            "componentType" : 5126,
            "count" : 5290,
            "type" : "VEC3"
        },
        {
            "bufferView" : 2,
            "componentType" : 5126,
            "count" : 5290,
            "type" : "VEC2"
        },
        {
            "bufferView" : 3,
            "componentType" : 5123,
            "count" : 9348,
            "type" : "SCALAR"
        }
    ],
    "bufferViews" : [
        {
            "buffer" : 0,
            "byteLength" : 63480,
            "byteOffset" : 0
        },
        {
            "buffer" : 0,
            "byteLength" : 63480,
            "byteOffset" : 63480
        },
        {
            "buffer" : 0,
            "byteLength" : 42320,
            "byteOffset" : 126960
        },
        {
            "buffer" : 0,
            "byteLength" : 18696,
            "byteOffset" : 169280
        }
    ],
    "buffers" : [
        {
            "byteLength" : 187976,
            "uri" : "data:application/octet-stream;base64,"
        }
    ]
}
