{
    "asset" : {
        "generator" : "Khronos glTF Blender I/O v1.8.19",
        "version" : "2.0"
    },
    "scene" : 0,
    "scenes" : [
        {
            "name" : "Scene",
            "nodes" : [
                0,
                1
            ]
        }
    ],
    "nodes" : [
        {
            "mesh" : 0,
            "name" : "Curve",
            "scale" : [
                3.059511184692383,
                1,
                3.059511184692383
            ],
            "translation" : [
                0,
                0,
                -0.12782905995845795
            ]
        },
        {
            "mesh" : 1,
            "name" : "path-1",
            "scale" : [
                3.059511184692383,
                1,
                3.059511184692383
            ]
        }
    ],
    "materials" : [
        {
            "doubleSided" : true,
            "name" : "SVGMat.001",
            "pbrMetallicRoughness" : {
                "baseColorFactor" : [
                    1,
                    1,
                    1,
                    1
                ],
                "metallicFactor" : 0,
                "roughnessFactor" : 0.4000000059604645
            }
        },
        {
            "doubleSided" : true,
            "name" : "Material",
            "pbrMetallicRoughness" : {
                "baseColorFactor" : [
                    1,
                    0.06300970166921616,
                    0.23074007034301758,
                    1
                ],
                "metallicFactor" : 0,
                "roughnessFactor" : 0.4000000059604645
            }
        }
    ],
    "meshes" : [
        {
            "name" : "Curve",
            "primitives" : [
                {
                    "attributes" : {
                        "POSITION" : 0,
                        "NORMAL" : 1,
                        "TEXCOORD_0" : 2
                    },
                    "indices" : 3,
                    "material" : 0
                }
            ]
        },
        {
            "name" : "path-1",
            "primitives" : [
                {
                    "attributes" : {
                        "POSITION" : 4,
                        "NORMAL" : 5,
                        "TEXCOORD_0" : 6
                    },
                    "indices" : 7,
                    "material" : 1
                }
            ]
        }
    ],
    "accessors" : [
        {
            "bufferView" : 0,
            "componentType" : 5126,
            "count" : 1356,
            "max" : [
                0.041341088712215424,
                0.03999999910593033,
                0.11038655042648315
            ],
            "min" : [
                -0.06928826868534088,
                -0.03999999910593033,
                -0.07217578589916229
            ],
            "type" : "VEC3"
        },
        {
            "bufferView" : 1,
            "componentType" : 5126,
            "count" : 1356,
            "type" : "VEC3"
        },
        {
            "bufferView" : 2,
            "componentType" : 5126,
            "count" : 1356,
            "type" : "VEC2"
        },
        {
            "bufferView" : 3,
            "componentType" : 5123,
            "count" : 2472,
            "type" : "SCALAR"
        },
        {
            "bufferView" : 4,
            "componentType" : 5126,
            "count" : 732,
            "max" : [
                0.07231181859970093,
                0.029999999329447746,
                0.11087650805711746
            ],
            "min" : [
                -0.10851631313562393,
                -0.029999999329447746,
                -0.11435671895742416
            ],
            "type" : "VEC3"
        },
        {
            "bufferView" : 5,
            "componentType" : 5126,
            "count" : 732,
            "type" : "VEC3"
        },
        {
            "bufferView" : 6,
            "componentType" : 5126,
            "count" : 732,
            "type" : "VEC2"
        },
        {
            "bufferView" : 7,
            "componentType" : 5123,
            "count" : 1296,
            "type" : "SCALAR"
        }
    ],
    "bufferViews" : [
        {
            "buffer" : 0,
            "byteLength" : 16272,
            "byteOffset" : 0
        },
        {
            "buffer" : 0,
            "byteLength" : 16272,
            "byteOffset" : 16272
        },
        {
            "buffer" : 0,
            "byteLength" : 10848,
            "byteOffset" : 32544
        },
        {
            "buffer" : 0,
            "byteLength" : 4944,
            "byteOffset" : 43392
        },
        {
            "buffer" : 0,
            "byteLength" : 8784,
            "byteOffset" : 48336
        },
        {
            "buffer" : 0,
            "byteLength" : 8784,
            "byteOffset" : 57120
        },
        {
            "buffer" : 0,
            "byteLength" : 5856,
            "byteOffset" : 65904
        },
        {
            "buffer" : 0,
            "byteLength" : 2592,
            "byteOffset" : 71760
        }
    ],
    "buffers" : [
        {
            "byteLength" : 74352,
            "uri" : "data:application/octet-stream;base64,"
        }
    ]
}
