{
    "asset" : {
        "generator" : "Khronos glTF Blender I/O v1.8.19",
        "version" : "2.0"
    },
    "scene" : 0,
    "scenes" : [
        {
            "name" : "Scene",
            "nodes" : [
                0
            ]
        }
    ],
    "nodes" : [
        {
            "mesh" : 0,
            "name" : "Curve"
        }
    ],
    "materials" : [
        {
            "doubleSided" : true,
            "name" : "SVGMat.070",
            "pbrMetallicRoughness" : {
                "baseColorFactor" : [
                    0.009134058840572834,
                    0.4793201684951782,
                    0.48514994978904724,
                    1
                ],
                "metallicFactor" : 0,
                "roughnessFactor" : 0.4000000059604645
            }
        }
    ],
    "meshes" : [
        {
            "name" : "Curve.050",
            "primitives" : [
                {
                    "attributes" : {
                        "POSITION" : 0,
                        "NORMAL" : 1,
                        "TEXCOORD_0" : 2
                    },
                    "indices" : 3,
                    "material" : 0
                }
            ]
        }
    ],
    "accessors" : [
        {
            "bufferView" : 0,
            "componentType" : 5126,
            "count" : 1240,
            "max" : [
                0.3596625328063965,
                0.029999999329447746,
                0.21259631216526031
            ],
            "min" : [
                -0.34590744972229004,
                -0.029999999329447746,
                -0.2106562703847885
            ],
            "type" : "VEC3"
        },
        {
            "bufferView" : 1,
            "componentType" : 5126,
            "count" : 1240,
            "type" : "VEC3"
        },
        {
            "bufferView" : 2,
            "componentType" : 5126,
            "count" : 1240,
            "type" : "VEC2"
        },
        {
            "bufferView" : 3,
            "componentType" : 5123,
            "count" : 2280,
            "type" : "SCALAR"
        }
    ],
    "bufferViews" : [
        {
            "buffer" : 0,
            "byteLength" : 14880,
            "byteOffset" : 0
        },
        {
            "buffer" : 0,
            "byteLength" : 14880,
            "byteOffset" : 14880
        },
        {
            "buffer" : 0,
            "byteLength" : 9920,
            "byteOffset" : 29760
        },
        {
            "buffer" : 0,
            "byteLength" : 4560,
            "byteOffset" : 39680
        }
    ],
    "buffers" : [
        {
            "byteLength" : 44240,
            "uri" : "data:application/octet-stream;base64,"
        }
    ]
}
