{
    "asset" : {
        "generator" : "Khronos glTF Blender I/O v1.8.19",
        "version" : "2.0"
    },
    "scene" : 0,
    "scenes" : [
        {
            "name" : "Scene",
            "nodes" : [
                0,
                1
            ]
        }
    ],
    "nodes" : [
        {
            "mesh" : 0,
            "name" : "Curve.002"
        },
        {
            "mesh" : 1,
            "name" : "Curve.014"
        }
    ],
    "materials" : [
        {
            "doubleSided" : true,
            "name" : "SVGMat.019",
            "pbrMetallicRoughness" : {
                "baseColorFactor" : [
                    0.03560131415724754,
                    0.0666259378194809,
                    0.1119324266910553,
                    1
                ],
                "metallicFactor" : 0,
                "roughnessFactor" : 0.4000000059604645
            }
        },
        {
            "doubleSided" : true,
            "name" : "SVGMat.018",
            "pbrMetallicRoughness" : {
                "baseColorFactor" : [
                    0.052860647439956665,
                    0.4793201684951782,
                    0.22696587443351746,
                    1
                ],
                "metallicFactor" : 0,
                "roughnessFactor" : 0.4000000059604645
            }
        }
    ],
    "meshes" : [
        {
            "name" : "Curve.007",
            "primitives" : [
                {
                    "attributes" : {
                        "POSITION" : 0,
                        "NORMAL" : 1,
                        "TEXCOORD_0" : 2
                    },
                    "indices" : 3,
                    "material" : 0
                }
            ]
        },
        {
            "name" : "Curve.006",
            "primitives" : [
                {
                    "attributes" : {
                        "POSITION" : 4,
                        "NORMAL" : 5,
                        "TEXCOORD_0" : 6
                    },
                    "indices" : 7,
                    "material" : 1
                }
            ]
        }
    ],
    "accessors" : [
        {
            "bufferView" : 0,
            "componentType" : 5126,
            "count" : 26,
            "max" : [
                0.2128433883190155,
                0.03999999910593033,
                0.07625225186347961
            ],
            "min" : [
                -0.21222253143787384,
                -0.03999999910593033,
                -0.29053211212158203
            ],
            "type" : "VEC3"
        },
        {
            "bufferView" : 1,
            "componentType" : 5126,
            "count" : 26,
            "type" : "VEC3"
        },
        {
            "bufferView" : 2,
            "componentType" : 5126,
            "count" : 26,
            "type" : "VEC2"
        },
        {
            "bufferView" : 3,
            "componentType" : 5123,
            "count" : 60,
            "type" : "SCALAR"
        },
        {
            "bufferView" : 4,
            "componentType" : 5126,
            "count" : 32,
            "max" : [
                0.3539440929889679,
                0.03999999910593033,
                0.3178362250328064
            ],
            "min" : [
                -0.35155948996543884,
                -0.03999999910593033,
                -0.29053211212158203
            ],
            "type" : "VEC3"
        },
        {
            "bufferView" : 5,
            "componentType" : 5126,
            "count" : 32,
            "type" : "VEC3"
        },
        {
            "bufferView" : 6,
            "componentType" : 5126,
            "count" : 32,
            "type" : "VEC2"
        },
        {
            "bufferView" : 7,
            "componentType" : 5123,
            "count" : 60,
            "type" : "SCALAR"
        }
    ],
    "bufferViews" : [
        {
            "buffer" : 0,
            "byteLength" : 312,
            "byteOffset" : 0
        },
        {
            "buffer" : 0,
            "byteLength" : 312,
            "byteOffset" : 312
        },
        {
            "buffer" : 0,
            "byteLength" : 208,
            "byteOffset" : 624
        },
        {
            "buffer" : 0,
            "byteLength" : 120,
            "byteOffset" : 832
        },
        {
            "buffer" : 0,
            "byteLength" : 384,
            "byteOffset" : 952
        },
        {
            "buffer" : 0,
            "byteLength" : 384,
            "byteOffset" : 1336
        },
        {
            "buffer" : 0,
            "byteLength" : 256,
            "byteOffset" : 1720
        },
        {
            "buffer" : 0,
            "byteLength" : 120,
            "byteOffset" : 1976
        }
    ],
    "buffers" : [
        {
            "byteLength" : 2096,
            "uri" : "data:application/octet-stream;base64,"
        }
    ]
}
